<svg width="17" height="16" viewBox="0 0 17 16" fill="none" xmlns="http://www.w3.org/2000/svg">
<mask id="mask0_47_46" style="mask-type:alpha" maskUnits="userSpaceOnUse" x="0" y="0" width="17" height="16">
<rect x="0.333008" width="16" height="16" fill="#D9D9D9"/>
</mask>
<g mask="url(#mask0_47_46)">
<path d="M4.23268 11.3999C4.79935 10.9666 5.43268 10.6249 6.13268 10.3749C6.83268 10.1249 7.56602 9.99992 8.33268 9.99992C9.09935 9.99992 9.83268 10.1249 10.5327 10.3749C11.2327 10.6249 11.866 10.9666 12.4327 11.3999C12.8216 10.9444 13.1243 10.4277 13.341 9.84992C13.5577 9.27214 13.666 8.65547 13.666 7.99992C13.666 6.52214 13.1466 5.26381 12.1077 4.22492C11.0688 3.18603 9.81046 2.66659 8.33268 2.66659C6.8549 2.66659 5.59657 3.18603 4.55768 4.22492C3.51879 5.26381 2.99935 6.52214 2.99935 7.99992C2.99935 8.65547 3.10768 9.27214 3.32435 9.84992C3.54102 10.4277 3.84379 10.9444 4.23268 11.3999ZM8.33268 8.66658C7.67713 8.66658 7.12435 8.44159 6.67435 7.99159C6.22435 7.54158 5.99935 6.98881 5.99935 6.33325C5.99935 5.6777 6.22435 5.12492 6.67435 4.67492C7.12435 4.22492 7.67713 3.99992 8.33268 3.99992C8.98824 3.99992 9.54102 4.22492 9.99102 4.67492C10.441 5.12492 10.666 5.6777 10.666 6.33325C10.666 6.98881 10.441 7.54158 9.99102 7.99159C9.54102 8.44159 8.98824 8.66658 8.33268 8.66658ZM8.33268 14.6666C7.41046 14.6666 6.54379 14.4916 5.73268 14.1416C4.92157 13.7916 4.21602 13.3166 3.61602 12.7166C3.01602 12.1166 2.54102 11.411 2.19102 10.5999C1.84102 9.78881 1.66602 8.92214 1.66602 7.99992C1.66602 7.0777 1.84102 6.21103 2.19102 5.39992C2.54102 4.58881 3.01602 3.88325 3.61602 3.28325C4.21602 2.68325 4.92157 2.20825 5.73268 1.85825C6.54379 1.50825 7.41046 1.33325 8.33268 1.33325C9.2549 1.33325 10.1216 1.50825 10.9327 1.85825C11.7438 2.20825 12.4493 2.68325 13.0493 3.28325C13.6493 3.88325 14.1243 4.58881 14.4743 5.39992C14.8243 6.21103 14.9993 7.0777 14.9993 7.99992C14.9993 8.92214 14.8243 9.78881 14.4743 10.5999C14.1243 11.411 13.6493 12.1166 13.0493 12.7166C12.4493 13.3166 11.7438 13.7916 10.9327 14.1416C10.1216 14.4916 9.2549 14.6666 8.33268 14.6666ZM8.33268 13.3333C8.92157 13.3333 9.47713 13.2471 9.99935 13.0749C10.5216 12.9027 10.9993 12.6555 11.4327 12.3333C10.9993 12.011 10.5216 11.7638 9.99935 11.5916C9.47713 11.4194 8.92157 11.3333 8.33268 11.3333C7.74379 11.3333 7.18824 11.4194 6.66602 11.5916C6.14379 11.7638 5.66602 12.011 5.23268 12.3333C5.66602 12.6555 6.14379 12.9027 6.66602 13.0749C7.18824 13.2471 7.74379 13.3333 8.33268 13.3333ZM8.33268 7.33325C8.62157 7.33325 8.86046 7.23881 9.04935 7.04992C9.23824 6.86103 9.33268 6.62214 9.33268 6.33325C9.33268 6.04436 9.23824 5.80547 9.04935 5.61659C8.86046 5.4277 8.62157 5.33325 8.33268 5.33325C8.04379 5.33325 7.8049 5.4277 7.61602 5.61659C7.42713 5.80547 7.33268 6.04436 7.33268 6.33325C7.33268 6.62214 7.42713 6.86103 7.61602 7.04992C7.8049 7.23881 8.04379 7.33325 8.33268 7.33325Z" fill="#222222"/>
</g>
</svg>
