<svg width="78" height="80" viewBox="0 0 78 80" fill="none" xmlns="http://www.w3.org/2000/svg">
<path fill-rule="evenodd" clip-rule="evenodd" d="M26.7435 1.00708C22.3435 1.00708 18.1239 2.75603 15.0127 5.86918L0 20.8912V27.7672C0 32.6252 2.08541 36.9957 5.40932 40.0314C2.08541 43.0672 0 47.4377 0 52.2956V59.1717L15.0127 74.1938C18.1239 77.307 22.3435 79.0558 26.7435 79.0558C31.5984 79.0558 35.9662 76.9692 39 73.6432C42.0338 76.9692 46.4016 79.0558 51.2565 79.0558C55.6565 79.0558 59.8761 77.307 62.9873 74.1938L78 59.1717V52.2956C78 47.4377 75.9147 43.0672 72.5907 40.0314C75.9147 36.9957 78 32.6252 78 27.7672V20.8912L62.9873 5.86918C59.8761 2.75603 55.6565 1.00708 51.2565 1.00708C46.4016 1.00708 42.0338 3.09379 39 6.41978C35.9662 3.09379 31.5984 1.00708 26.7435 1.00708ZM50.2297 40.0314C50.0427 39.8607 49.8592 39.6853 49.6794 39.5054L39 28.8193L28.3206 39.5054C28.1408 39.6853 27.9573 39.8607 27.7703 40.0314C27.9573 40.2022 28.1408 40.3776 28.3206 40.5575L39 51.2435L49.6794 40.5575C49.8592 40.3776 50.0427 40.2022 50.2297 40.0314ZM43.3333 59.1717V62.4556C43.3333 66.8342 46.8807 70.3838 51.2565 70.3838C53.3579 70.3838 55.3732 69.5485 56.8591 68.0617L69.3334 55.5795V52.2956C69.3334 47.9171 65.786 44.3674 61.4102 44.3674C59.3089 44.3674 57.2935 45.2028 55.8076 46.6896L43.3333 59.1717ZM34.6667 59.1717L22.1924 46.6896C20.7065 45.2028 18.6912 44.3674 16.5899 44.3674C12.214 44.3674 8.66666 47.9171 8.66666 52.2956V55.5795L21.1409 68.0617C22.6268 69.5485 24.6421 70.3838 26.7435 70.3838C31.1193 70.3838 34.6667 66.8342 34.6667 62.4556V59.1717ZM34.6667 17.6073V20.8912L22.1924 33.3733C20.7065 34.8601 18.6912 35.6954 16.5899 35.6954C12.214 35.6954 8.66666 32.1458 8.66666 27.7672V24.4833L21.1409 12.0013C22.6268 10.5145 24.6421 9.67917 26.7435 9.67917C31.1193 9.67917 34.6667 13.2287 34.6667 17.6073ZM55.8076 33.3733L43.3333 20.8912V17.6073C43.3333 13.2287 46.8807 9.67917 51.2565 9.67917C53.3579 9.67917 55.3732 10.5145 56.8591 12.0013L69.3334 24.4833V27.7672C69.3334 32.1458 65.786 35.6954 61.4102 35.6954C59.3089 35.6954 57.2935 34.8601 55.8076 33.3733Z" fill="white"/>
</svg>
