<svg width="18" height="16" viewBox="0 0 18 16" fill="none" xmlns="http://www.w3.org/2000/svg">
<path d="M17.7235 5.9867C17.5793 5.56967 17.1968 5.26649 16.736 5.2032L12.0674 4.5636L9.98129 0.589349C9.56823 -0.19645 8.20305 -0.19645 7.78999 0.589349L5.70387 4.5636L1.04638 5.2032C0.586814 5.26649 0.204315 5.57073 0.0601279 5.98794C-0.0840593 6.40391 0.035753 6.86142 0.369315 7.16779L3.74731 10.2721L2.95043 14.6519C2.87225 15.0839 3.0605 15.5218 3.43681 15.7799C3.81443 16.0368 4.31431 16.0704 4.72493 15.8664L8.88517 13.798L13.0576 15.8664C13.2361 15.9551 13.4317 15.999 13.6259 15.999C13.8788 15.999 14.1318 15.924 14.3457 15.7801C14.7222 15.5208 14.9103 15.0841 14.8321 14.6521L14.0365 10.2723L17.4145 7.16796C17.7481 6.86248 17.8677 6.40391 17.7235 5.9867Z" fill="#DB323E"/>
</svg>
